<?xml version="1.0" encoding="utf-8"?>
<!-- Generator: Adobe Illustrator 21.0.2, SVG Export Plug-In . SVG Version: 6.00 Build 0)  -->
<svg version="1.1" id="hexagon" xmlns="http://www.w3.org/2000/svg" xmlns:xlink="http://www.w3.org/1999/xlink" x="0px" y="0px"
	 viewBox="0 0 474 532" style="enable-background:new 0 0 474 532;" xml:space="preserve">
<style type="text/css">
	.st0{filter:url(#Adobe_OpacityMaskFilter);}
	.st1{fill:#FFFFFF;}
	.st2{mask:url(#mask-2);}
	.st3{fill:none;stroke:#979797;stroke-width:0.8;stroke-linecap:square;}
	.st4{filter:url(#Adobe_OpacityMaskFilter_1_);}
	.st5{mask:url(#mask-4_3_);fill:none;stroke:#979797;stroke-width:0.8;stroke-linecap:square;}
	.st6{filter:url(#Adobe_OpacityMaskFilter_2_);}
	.st7{mask:url(#mask-4_2_);fill:none;stroke:#979797;stroke-width:0.8;stroke-linecap:square;}
	.st8{filter:url(#Adobe_OpacityMaskFilter_3_);}
	.st9{mask:url(#mask-4_1_);fill:none;stroke:#979797;stroke-width:0.8;stroke-linecap:square;}
</style>
<title>hexagon_0.8x</title>
<desc>Created with Sketch.</desc>
<g id="Page-1">
	<g id="hexagon_0.8x" transform="translate(0.000000, -4.000000)">
		<g id="Clipped">
			<g id="a">
			</g>
			<defs>
				<filter id="Adobe_OpacityMaskFilter" filterUnits="userSpaceOnUse" x="-224.5" y="-99.7" width="923.4" height="737.1">
					<feColorMatrix  type="matrix" values="1 0 0 0 0  0 1 0 0 0  0 0 1 0 0  0 0 0 1 0"/>
				</filter>
			</defs>
			<mask maskUnits="userSpaceOnUse" x="-224.5" y="-99.7" width="923.4" height="737.1" id="mask-2">
				<g class="st0">
					<polygon id="path-1" class="st1" points="236.7,0 473.5,134 473.5,402 236.7,536 0,402 0,134 					"/>
				</g>
			</mask>
			<g id="Group" class="st2">
				<g id="Shape" transform="translate(-224.610455, -99.200000)">
					<path class="st3" d="M839.8,575.7L92.9,144.1 M845,566.7L98.1,135.1 M850.2,557.6L103.3,126.1 M855.4,548.6L108.5,117.1
						 M860.6,539.6L113.7,108.1 M902.1,467.6L155.3,36 M896.9,476.6L150.1,45 M891.7,485.6L144.9,54 M886.5,494.6L139.7,63.1
						 M881.3,503.6L134.5,72.1 M876.1,512.6L129.3,81.1 M922.9,431.6L176.1,0 M870.9,521.6L124.1,90.1 M917.7,440.6L170.9,9
						 M912.5,449.6L165.7,18 M907.3,458.6L160.5,27 M865.7,530.6L118.9,99.1"/>
					<path class="st3" d="M747.4,735.7L0.6,304.2 M752.6,726.7L5.8,295.1 M757.8,717.7L11,286.1 M763,708.7L16.2,277.1 M768.2,699.7
						L21.4,268.1 M809.8,627.6L63,196.1 M804.6,636.6L57.8,205.1 M799.4,645.6L52.6,214.1 M794.2,654.6L47.4,223.1 M789,663.6
						L42.2,232.1 M783.8,672.7L37,241.1 M830.6,591.6L83.7,160 M848.1,591.6L101.3,160 M778.6,681.7L31.8,250.1 M825.4,600.6
						L78.5,169.1 M820.2,609.6L73.4,178.1 M815,618.6L68.2,187.1 M773.4,690.7L26.6,259.1"/>
					<path class="st3" d="M830.6,144.4L83.7,576 M825.4,135.4L78.5,566.9 M820.2,126.4L73.4,557.9 M815,117.4L68.2,548.9
						 M809.8,108.4L63,539.9 M768.2,36.3L21.4,467.9 M773.4,45.3L26.6,476.9 M778.6,54.3L31.8,485.9 M783.8,63.3L37,494.9 M789,72.4
						L42.2,503.9 M794.2,81.4L47.4,512.9 M747.4,0.3L0.6,431.8 M799.4,90.4L52.6,521.9 M752.6,9.3L5.8,440.9 M757.8,18.3L11,449.9
						 M763,27.3L16.2,458.9 M804.6,99.4L57.8,530.9"/>
					<path class="st3" d="M922.9,304.4L176.1,736 M917.7,295.4L170.9,727 M912.5,286.4L165.7,718 M907.3,277.4L160.5,709
						 M902.1,268.4L155.3,700 M860.6,196.4L113.7,627.9 M865.7,205.4L118.9,636.9 M870.9,214.4L124.1,645.9 M876.1,223.4
						L129.3,654.9 M881.3,232.4L134.5,663.9 M886.5,241.4L139.7,672.9 M839.8,160.3L92.9,591.9 M839.4,150.1L92.6,581.7
						 M891.7,250.4L144.9,682 M845,169.3L98.1,600.9 M850.2,178.4L103.3,609.9 M855.4,187.4L108.5,618.9 M896.9,259.4L150.1,691"/>
					<path class="st3" d="M452.8,103.7v535.4 M442.4,103.7v535.4 M432,103.7v535.4 M421.6,103.7v535.4 M411.3,103.7v535.4
						 M328.1,103.7v535.4 M338.5,103.7v535.4 M348.9,103.7v535.4 M359.3,103.7v535.4 M369.7,103.7v535.4 M380.1,103.7v535.4
						 M286.6,103.7v535.4 M390.5,103.7v535.4 M296.9,103.7v535.4 M307.3,103.7v535.4 M317.7,103.7v535.4 M400.9,103.7v535.4"/>
					<path class="st3" d="M637.5,103.7v535.4 M627.1,103.7v535.4 M616.7,103.7v535.4 M606.3,103.7v535.4 M595.9,103.7v535.4
						 M512.8,103.7v535.4 M523.2,103.7v535.4 M533.5,103.7v535.4 M543.9,103.7v535.4 M554.3,103.7v535.4 M564.7,103.7v535.4
						 M471.2,103.7v535.4 M575.1,103.7v535.4 M481.6,103.7v535.4 M492,103.7v535.4 M502.4,103.7v535.4 M585.5,103.7v535.4"/>
				</g>
			</g>
		</g>
		<defs>
			<filter id="Adobe_OpacityMaskFilter_1_" filterUnits="userSpaceOnUse" x="236.6" y="4" width="0.8" height="536">
				<feColorMatrix  type="matrix" values="1 0 0 0 0  0 1 0 0 0  0 0 1 0 0  0 0 0 1 0"/>
			</filter>
		</defs>
		<mask maskUnits="userSpaceOnUse" x="236.6" y="4" width="0.8" height="536" id="mask-4_3_">
			<g class="st4">
				<polygon id="path-3_3_" class="st1" points="236.7,0 473.5,134 473.5,402 236.7,536 0,402 0,134 				"/>
			</g>
		</mask>
		<path id="Shape_1_" class="st5" d="M237,4.4v535.2"/>
		<g id="Clipped_1_">
			<g id="a_1_">
			</g>
			<defs>
				<filter id="Adobe_OpacityMaskFilter_2_" filterUnits="userSpaceOnUse" x="237" y="539.6" width="0" height="0">
					<feColorMatrix  type="matrix" values="1 0 0 0 0  0 1 0 0 0  0 0 1 0 0  0 0 0 1 0"/>
				</filter>
			</defs>
			<mask maskUnits="userSpaceOnUse" x="237" y="539.6" width="0" height="0" id="mask-4_2_">
				<g class="st6">
					<polygon id="path-3_2_" class="st1" points="236.7,0 473.5,134 473.5,402 236.7,536 0,402 0,134 					"/>
				</g>
			</mask>
			<path id="Shape_3_" class="st7" d="M237,539.6"/>
			<defs>
				<filter id="Adobe_OpacityMaskFilter_3_" filterUnits="userSpaceOnUse" x="237" y="4.4" width="0" height="0">
					<feColorMatrix  type="matrix" values="1 0 0 0 0  0 1 0 0 0  0 0 1 0 0  0 0 0 1 0"/>
				</filter>
			</defs>
			<mask maskUnits="userSpaceOnUse" x="237" y="4.4" width="0" height="0" id="mask-4_1_">
				<g class="st8">
					<polygon id="path-3_1_" class="st1" points="236.7,0 473.5,134 473.5,402 236.7,536 0,402 0,134 					"/>
				</g>
			</mask>
			<path id="Shape_2_" class="st9" d="M237,4.4"/>
		</g>
	</g>
</g>
</svg>
