<svg id="hexagon" viewBox="0 0 474 532" version="1.1"
         xmlns="http://www.w3.org/2000/svg" xmlns:xlink="http://www.w3.org/1999/xlink">
        <title>hexagon_0.8x</title>
        <desc>Created with Sketch.</desc>
        <defs>
            <polygon id="path-1"
                     points="236.744216 0 473.488432 134 473.488432 402 236.744216 536 0 402 0 134"></polygon>
            <polygon id="path-3"
                     points="236.744216 0 473.488432 134 473.488432 402 236.744216 536 0 402 0 134"></polygon>
        </defs>
        <g id="Page-1" stroke="none" stroke-width="1" fill="none" fill-rule="evenodd">
            <g id="hexagon_0.8x" transform="translate(0.000000, -4.000000)">
                <g id="Clipped">
                    <mask id="mask-2" fill="white">
                        <use xlink:href="#path-1"></use>
                    </mask>
                    <g id="a"></g>
                    <g id="Group" stroke-linecap="square" mask="url(#mask-2)" stroke="#979797" stroke-width="0.8">
                        <g transform="translate(-224.610455, -99.200000)" id="Shape">
                            <path d="M839.768135,575.66 L92.935973,144.112 M844.96375,566.6528 L98.1315885,135.1056 M850.159366,557.6464 L103.327204,126.0984 M855.354981,548.64 L108.52282,117.092 M860.550597,539.632 L113.718435,108.0864 M902.115521,467.58 L155.283359,36.032 M896.919906,476.5864 L150.087744,45.0384 M891.72429,485.592 L144.892128,54.0464 M886.528675,494.6 L139.696513,63.052 M881.333059,503.6064 L134.500897,72.0584 M876.137444,512.6128 L129.305282,81.0656 M922.897983,431.552 L176.065821,0.0064 M870.941828,521.62 L124.109666,90.072 M917.702368,440.56 L170.870206,9.012 M912.506752,449.5664 L165.67459,18.0184 M907.311137,458.5728 L160.478975,27.0256 M865.746212,530.6264 L118.914051,99.0784"></path>
                            <path d="M747.446044,735.7016 L0.613881956,304.1536 M752.641659,726.6944 L5.80949747,295.1472 M757.837275,717.688 L11.005113,286.14 M763.03289,708.6816 L16.2007285,277.1336 M768.228506,699.6744 L21.396344,268.128 M809.79343,627.6216 L62.9612681,196.0736 M804.597815,636.628 L57.7656526,205.08 M799.402199,645.6344 L52.5700371,214.088 M794.206583,654.6416 L47.3744216,223.0936 M789.010968,663.648 L42.1788061,232.1 M783.815352,672.6544 L36.9831906,241.1072 M830.575892,591.5944 L83.7437302,160.048 M848.124283,591.5736 L101.29372,160.0256 M778.619737,681.6616 L31.787575,250.1136 M825.380277,600.6016 L78.5481147,169.0536 M820.184661,609.608 L73.3524992,178.06 M814.989046,618.6144 L68.1568836,187.0672 M773.424121,690.668 L26.5919595,259.12"></path>
                            <path d="M830.575892,144.4056 L83.7437302,575.952 M825.380277,135.3984 L78.5481147,566.9464 M820.184661,126.392 L73.3524992,557.94 M814.989046,117.3856 L68.1568836,548.9328 M809.79343,108.3784 L62.9612681,539.9264 M768.228506,36.3256 L21.396344,467.872 M773.424121,45.332 L26.5919595,476.88 M778.619737,54.3384 L31.787575,485.8864 M783.815352,63.3456 L36.9831906,494.8928 M789.010968,72.352 L42.1788061,503.9 M794.206583,81.3584 L47.3744216,512.9064 M747.446044,0.2984 L0.613881956,431.8464 M799.402199,90.3656 L52.5700371,521.912 M752.641659,9.3056 L5.80949747,440.8528 M757.837275,18.312 L11.005113,449.86 M763.03289,27.3184 L16.2007285,458.8664 M804.597815,99.372 L57.7656526,530.92"></path>
                            <path d="M922.897983,304.448 L176.065821,735.9936 M917.702368,295.44 L170.870206,726.988 M912.506752,286.4336 L165.67459,717.9816 M907.311137,277.4272 L160.478975,708.9744 M902.115521,268.42 L155.283359,699.968 M860.550597,196.368 L113.718435,627.9144 M865.746212,205.3736 L118.914051,636.9216 M870.941828,214.38 L124.109666,645.928 M876.137444,223.3872 L129.305282,654.9344 M881.333059,232.3936 L134.500897,663.9416 M886.528675,241.4 L139.696513,672.948 M839.768135,160.34 L92.935973,591.888 M839.419629,150.1336 L92.5858685,581.6816 M891.72429,250.408 L144.892128,681.9536 M844.96375,169.3472 L98.1315885,600.8944 M850.159366,178.3536 L103.327204,609.9016 M855.354981,187.36 L108.52282,618.908 M896.919906,259.4136 L150.087744,690.9616"></path>
                            <path d="M452.817875,103.6624 L452.817875,639.1024 M442.426644,103.6624 L442.426644,639.1024 M432.035413,103.6624 L432.035413,639.1024 M421.644182,103.6624 L421.644182,639.1024 M411.252951,103.6624 L411.252951,639.1024 M328.123103,103.6624 L328.123103,639.1024 M338.514334,103.6624 L338.514334,639.1024 M348.905565,103.6624 L348.905565,639.1024 M359.296796,103.6624 L359.296796,639.1024 M369.688027,103.6624 L369.688027,639.1024 M380.079258,103.6624 L380.079258,639.1024 M286.558179,103.6624 L286.558179,639.1024 M390.470489,103.6624 L390.470489,639.1024 M296.94941,103.6624 L296.94941,639.1024 M307.340641,103.6624 L307.340641,639.1024 M317.731872,103.6624 L317.731872,639.1024 M400.86172,103.6624 L400.86172,639.1024"></path>
                            <path d="M637.462057,103.6624 L637.462057,639.1024 M627.070826,103.6624 L627.070826,639.1024 M616.679595,103.6624 L616.679595,639.1024 M606.288364,103.6624 L606.288364,639.1024 M595.897133,103.6624 L595.897133,639.1024 M512.767285,103.6624 L512.767285,639.1024 M523.158516,103.6624 L523.158516,639.1024 M533.549747,103.6624 L533.549747,639.1024 M543.940978,103.6624 L543.940978,639.1024 M554.332209,103.6624 L554.332209,639.1024 M564.72344,103.6624 L564.72344,639.1024 M471.202361,103.6624 L471.202361,639.1024 M575.114671,103.6624 L575.114671,639.1024 M481.593592,103.6624 L481.593592,639.1024 M491.984823,103.6624 L491.984823,639.1024 M502.376054,103.6624 L502.376054,639.1024 M585.505902,103.6624 L585.505902,639.1024"></path>
                        </g>
                    </g>
                </g>
                <g id="Clipped">
                    <mask id="mask-4" fill="white">
                        <use xlink:href="#path-3"></use>
                    </mask>
                    <g id="a"></g>
                    <path d="M237,4.4 L237,539.6296" id="Shape" stroke="#979797" stroke-width="0.8"
                          stroke-linecap="square" mask="url(#mask-4)"></path>
                </g>
            </g>
        </g>
    </svg>